<svg id="Capa_1" data-name="Capa 1" xmlns="http://www.w3.org/2000/svg" viewBox="0 0 512 512"><defs><style>.cls-1{fill:#3e588f;}</style></defs><title>fb</title><path class="cls-1" d="M484.77,0H27.23A27.24,27.24,0,0,0,0,27.23V484.77A27.24,27.24,0,0,0,27.23,512H484.77A27.23,27.23,0,0,0,512,484.77V27.23A27.23,27.23,0,0,0,484.77,0ZM364.55,116.37l-39.36,0c-30.85,0-36.83,14.66-36.83,36.18V200H362l0,74.32H288.37V465H211.62V274.33H147.45V200h64.17V145.21C211.62,81.6,250.47,47,307.2,47l57.35.09Z" transform="translate(0 0)"/></svg>