<svg id="Capa_1" data-name="Capa 1" xmlns="http://www.w3.org/2000/svg" viewBox="0 0 424.4 512"><defs><style>.cls-1{fill:#1e90ff;}</style></defs><title>best-seller</title><path class="cls-1" d="M290,246.15H264.49V144.29a8.49,8.49,0,0,0-14.49-6l-34,34a8.49,8.49,0,0,0,12,12l19.46-19.46v81.37H222a8.49,8.49,0,1,0,0,17H290a8.49,8.49,0,0,0,0-17Z" transform="translate(-43.8 0)"/><path class="cls-1" d="M218.5,81.79a135.81,135.81,0,0,0-93,168,8.49,8.49,0,0,0,8.16,6.14,8.29,8.29,0,0,0,2.34-.33,8.49,8.49,0,0,0,5.81-10.5,118.83,118.83,0,1,1,228.53-.33,8.49,8.49,0,0,0,16.33,4.64A135.81,135.81,0,0,0,218.5,81.79Z" transform="translate(-43.8 0)"/><path class="cls-1" d="M340,284.22a8.49,8.49,0,0,0-12,12l12,12a8.49,8.49,0,0,0,6,2.49h0a8.49,8.49,0,0,0,6-14.49Z" transform="translate(-43.8 0)"/><path class="cls-1" d="M370.5,268.51,355.8,260a8.49,8.49,0,0,0-8.49,14.7L362,283.21a8.49,8.49,0,0,0,8.49-14.7Z" transform="translate(-43.8 0)"/><path class="cls-1" d="M184,284.22a8.49,8.49,0,0,0-12,0l-12,12a8.48,8.48,0,1,0,12,12l12-12A8.49,8.49,0,0,0,184,284.22Z" transform="translate(-43.8 0)"/><path class="cls-1" d="M164.78,274.67A8.49,8.49,0,0,0,156.2,260l-14.69,8.49a8.49,8.49,0,0,0,4.24,15.84h0a8.42,8.42,0,0,0,4.24-1.14l14.69-8.49Z" transform="translate(-43.8 0)"/><path class="cls-1" d="M466,206.51h0l-36.79-40.74,11.52-53.67a8.49,8.49,0,0,0-5.7-9.86L382.79,85.41,366,33.15a8.49,8.49,0,0,0-9.86-5.7L302.43,39,261.69,2.19a8.49,8.49,0,0,0-11.37,0L209.57,39,155.9,27.46a8.49,8.49,0,0,0-9.86,5.7L129.21,85.4,77,102.23a8.49,8.49,0,0,0-5.7,9.86l11.52,53.68L46,206.51a8.49,8.49,0,0,0,0,11.37l36.79,40.74L71.26,312.3a8.49,8.49,0,0,0,5.7,9.86l39.53,12.73a8.48,8.48,0,0,0-2.37,2.6l-64,110.85a8.49,8.49,0,0,0,9.56,12.44L121,444.32l16.48,61.39a8.49,8.49,0,0,0,7.1,6.22,9.59,9.59,0,0,0,1.1.07,8.49,8.49,0,0,0,7.35-4.24l63.75-110.43a8.36,8.36,0,0,0,1-4.53l32.58,29.42a8.49,8.49,0,0,0,11.37,0l32.58-29.42a8.36,8.36,0,0,0,1,4.53L359,507.76a8.49,8.49,0,0,0,7.35,4.24,9.59,9.59,0,0,0,1.1-.07,8.49,8.49,0,0,0,7.1-6.22L391,444.32l61.31,16.47a8.49,8.49,0,0,0,9.56-12.44l-64-110.85a8.49,8.49,0,0,0-2.36-2.6L435,322.15a8.49,8.49,0,0,0,5.7-9.86l-11.52-53.66L466,217.89A8.49,8.49,0,0,0,466,206.51Zm-264,182.32-53.49,92.69-13.37-49.82a8.49,8.49,0,0,0-10.39-6h0l-49.7,13.36L128.82,346a8.35,8.35,0,0,0,.93-5.32L146,391.25a8.49,8.49,0,0,0,9.86,5.7L204,386.62A8.17,8.17,0,0,0,202.05,388.84Zm234.88,50.25-49.71-13.38a8.49,8.49,0,0,0-10.4,6h0l-13.37,49.82L310,388.84a8.19,8.19,0,0,0-2-2.22l48.1,10.32a8.49,8.49,0,0,0,9.86-5.7l16.29-50.61a8.35,8.35,0,0,0,.93,5.34ZM413.72,250.48a8.49,8.49,0,0,0-2,7.47l10.81,50.41-49.1,15.8a8.49,8.49,0,0,0-5.48,5.48l-15.8,49.09-50.4-10.81a8.4,8.4,0,0,0-7.47,2L256,404.47l-38.28-34.56a8.49,8.49,0,0,0-5.69-2.19,8.06,8.06,0,0,0-1.78.2l-50.41,10.81L144,329.63a8.49,8.49,0,0,0-5.48-5.48l-49.09-15.8L100.28,258a8.49,8.49,0,0,0-2-7.47L63.73,212.2l34.56-38.28a8.49,8.49,0,0,0,2-7.47L89.47,116l49.1-15.8a8.49,8.49,0,0,0,5.48-5.48l15.8-49.09,50.4,10.81a8.36,8.36,0,0,0,7.47-2L256,19.93l38.28,34.56a8.34,8.34,0,0,0,7.47,2l50.41-10.81L368,94.77a8.49,8.49,0,0,0,5.48,5.48L422.53,116l-10.81,50.4a8.49,8.49,0,0,0,2,7.47l34.56,38.28Z" transform="translate(-43.8 0)"/><path class="cls-1" d="M297.15,333l-4.4-16.4a8.49,8.49,0,0,0-16.4,4.39l4.4,16.41a8.49,8.49,0,0,0,8.19,6.29,8.25,8.25,0,0,0,2.21-.29,8.49,8.49,0,0,0,6-10.4Z" transform="translate(-43.8 0)"/><path class="cls-1" d="M318.52,303.52a8.49,8.49,0,0,0-14.76,8.39l.06.1,8.49,14.69a8.49,8.49,0,0,0,14.7-8.49Z" transform="translate(-43.8 0)"/><path class="cls-1" d="M229.69,310.59a8.49,8.49,0,0,0-10.4,6h0l-4.4,16.4a8.49,8.49,0,0,0,6,10.4h0a8.25,8.25,0,0,0,2.21.29,8.49,8.49,0,0,0,8.19-6.29l4.4-16.41A8.49,8.49,0,0,0,229.69,310.59Z" transform="translate(-43.8 0)"/><path class="cls-1" d="M205.07,300.42a8.49,8.49,0,0,0-11.59,3.11L185,318.22a8.49,8.49,0,0,0,14.65,8.58l.06-.1L208.18,312A8.49,8.49,0,0,0,205.07,300.42Z" transform="translate(-43.8 0)"/><path class="cls-1" d="M256,314.06a8.49,8.49,0,0,0-8.49,8.49v17a8.49,8.49,0,0,0,17,0v-17A8.49,8.49,0,0,0,256,314.06Z" transform="translate(-43.8 0)"/></svg>