<svg id="Capa_1" data-name="Capa 1" xmlns="http://www.w3.org/2000/svg" viewBox="0 0 496 496"><title>clock</title><path d="M248,0C111,0,0,111,0,248S111,496,248,496,496,385,496,248C495.84,111.1,384.9.16,248,0Zm0,480C119.87,480,16,376.13,16,248S119.87,16,248,16,480,119.87,480,248,376.07,479.86,248,480Z"/><path d="M248,64a8,8,0,0,0,8-8V32a8,8,0,0,0-16,0V56A8,8,0,0,0,248,64Z"/><path d="M248,432a8,8,0,0,0-8,8v24a8,8,0,0,0,16,0V440A8,8,0,0,0,248,432Z"/><path d="M464,240H440a8,8,0,0,0,0,16h24a8,8,0,0,0,0-16Z"/><path d="M56,240H32a8,8,0,0,0,0,16H56a8,8,0,0,0,0-16Z"/><path d="M354.38,130.34h0l-88,88a7.76,7.76,0,0,0-1.65,2.49,31.26,31.26,0,0,0-33.39,0,7.76,7.76,0,0,0-1.65-2.49l-64-64a8,8,0,0,0-11.31,11.31l64,64a7.76,7.76,0,0,0,2.49,1.65,32,32,0,1,0,54.37,0,7.76,7.76,0,0,0,2.49-1.65l88-88a8,8,0,0,0-11.31-11.31ZM248,264a16,16,0,1,1,16-16A16,16,0,0,1,248,264Z"/></svg>