<svg id="Capa_1" data-name="Capa 1" xmlns="http://www.w3.org/2000/svg" viewBox="0 0 512 285.73"><defs><style>.cls-1{fill:#1e90ff;}</style></defs><title>delivery</title><path class="cls-1" d="M503.47,156.4h-73.3V130.8a17.66,17.66,0,0,0-17.66-17.66H157.87A17.66,17.66,0,0,0,140.2,130.8V184H71.42A8.53,8.53,0,0,0,64,188.32l-34.65,60.5H8.53A8.53,8.53,0,0,0,0,257.35v95.57a8.53,8.53,0,0,0,8.53,8.53H33.45a46,46,0,0,0,90.37,0h24.92a8.54,8.54,0,0,0,3.67-.94,17.06,17.06,0,0,0,5.38.94H269.4a46,46,0,0,0,90.37,0H412.5a17.66,17.66,0,0,0,17.66-17.66V265.88h55.13a8.53,8.53,0,1,0,0-17.07H430.17V219.63h9.64a8.53,8.53,0,1,0,0-17.07h-9.64v-29.1h73.3a8.53,8.53,0,1,0,0-17.07ZM76.37,201.46H140.2v47.36H49.07Zm2.3,180.39h0a29,29,0,1,1,29-29A29,29,0,0,1,78.68,381.85Zm45.14-37.55a46,46,0,0,0-90.37,0H17.07V265.88H140.2v78.42Zm190.89,37.55h0a29,29,0,1,1,29-29A29,29,0,0,1,314.71,381.85Zm98.47-225.11H372.39a8.53,8.53,0,1,0,0,17.07H413v28.84H308.65a8.53,8.53,0,0,0,0,17.07H412.84V248.9H354.13a8.53,8.53,0,0,0,0,17.07h58.54v78.42H359.85a46,46,0,0,0-90.37,0l-112.13-.51.6-213.33,255.23.6Z" transform="translate(0 -113.14)"/></svg>