<svg id="Capa_1" data-name="Capa 1" xmlns="http://www.w3.org/2000/svg" viewBox="0 0 512 438.33"><defs><style>.cls-1{fill:#5c4f1f;}</style></defs><title>leaf</title><path class="cls-1" d="M510.05,292c0-.31,0-.61-.09-.92L484.3,112.5a10,10,0,0,0-13.63-7.86l-118.1,47.48A10,10,0,1,0,360,170.68l106.28-42.73L490,292.73a10,10,0,0,0,.14,1.4A133.42,133.42,0,0,1,291.59,431.57c-.21-.12-.43-.23-.65-.33a181.18,181.18,0,0,0,18.7-16.35l117.08-31.37a10,10,0,0,0-5.18-19.32l-90.09,24.14A181.12,181.12,0,0,0,354.39,340l80.37-21.54a10,10,0,0,0-5.18-19.32L370.45,315l22.24-38.52,47-12.59a10,10,0,0,0-5.18-19.32L406.83,252l21.28-36.86a10,10,0,0,0-17.32-10L389.51,242l-7.42-27.68a10,10,0,1,0-19.32,5.18l12.59,47-13,22.54A180.61,180.61,0,0,0,246.23,118.57l-.19-.08-45.25-18.37a10,10,0,0,0-7.52,18.53l44.84,18.2.62.26a160.79,160.79,0,0,1,31.33,284.42l-16.78-29.07,36.39-135.8a10,10,0,1,0-19.32-5.18L239.13,368l-37-64.13,25.24-94.21A10,10,0,1,0,208,204.45L188,279.34l-29.19-50.55L174,172.05a10,10,0,1,0-19.32-5.18l-10,37.42L117,156.4a10,10,0,0,0-17.32,10l27.65,47.89-37.41-10a10,10,0,0,0-5.18,19.32l56.73,15.2,29.19,50.55L95.75,269.28a10,10,0,0,0-5.18,19.32l94.21,25.24,37,64.13L105.33,346.77a10,10,0,0,0-5.18,19.32l135.79,36.39,16.78,29.07C177.16,469.2,84.15,442.08,41.49,368.19A160.74,160.74,0,0,1,22.26,261.14a9.71,9.71,0,0,0,.14-1.48L51,60.91,117.2,87.8a10,10,0,0,0,7.52-18.53L46.63,37.57A10,10,0,0,0,33,45.41L2.41,258.09a9.9,9.9,0,0,0-.09,1,180.79,180.79,0,0,0,21.85,119.1c33.41,57.88,94.29,90.25,156.88,90.24a180.36,180.36,0,0,0,81.69-19.56L275,470.16a10,10,0,1,0,17.32-10l-4.56-7.89a152.88,152.88,0,0,0,70.59,17.34,154.65,154.65,0,0,0,39.84-5.25A153.13,153.13,0,0,0,510.05,292Z" transform="translate(0 -36.83)"/><path class="cls-1" d="M165.26,86.56a10,10,0,1,0,2.93,7.07A10.07,10.07,0,0,0,165.26,86.56Z" transform="translate(0 -36.83)"/><path class="cls-1" d="M443.88,174.37l-.06-.08A10,10,0,0,0,427.64,186l.06.08a10,10,0,1,0,16.18-11.75Z" transform="translate(0 -36.83)"/></svg>