<svg id="Capa_1" data-name="Capa 1" xmlns="http://www.w3.org/2000/svg" viewBox="0 0 512 512"><defs><style>.cls-1{fill:#1e90ff;}</style></defs><title>mobile-shopping</title><path class="cls-1" d="M238.94,477.87h34.13a8.53,8.53,0,0,0,0-17.07H238.94a8.53,8.53,0,0,0,0,17.07Z" transform="translate(0)"/><path class="cls-1" d="M110.94,128a8.53,8.53,0,0,0,8.53-8.53V68.27H392.54v68.27a8.53,8.53,0,0,0,17.07,0V34.13C409.6,18.77,389.91,0,366.94,0H145.07A42.72,42.72,0,0,0,102.4,42.67v76.8A8.53,8.53,0,0,0,110.94,128Zm8.53-85.33a25.6,25.6,0,0,1,25.6-25.6H366.94c14.79,0,25.6,11.95,25.6,17.07V51.2H119.47V42.67Z" transform="translate(0)"/><path class="cls-1" d="M401.07,375.47a8.53,8.53,0,0,0-8.53,8.53v42.67H119.47V392.53a8.53,8.53,0,1,0-17.07,0v76.8A42.72,42.72,0,0,0,145.07,512H366.94a42.72,42.72,0,0,0,42.67-42.67V384A8.53,8.53,0,0,0,401.07,375.47Zm-8.53,93.87a25.6,25.6,0,0,1-25.6,25.6H145.07a25.6,25.6,0,0,1-25.6-25.6v-25.6H392.54Z" transform="translate(0)"/><path class="cls-1" d="M238.94,25.6H221.87a8.53,8.53,0,1,0,0,17.07h17.07a8.53,8.53,0,0,0,0-17.07Z" transform="translate(0)"/><path class="cls-1" d="M290.14,25.6H273.07a8.53,8.53,0,0,0,0,17.07h17.07a8.53,8.53,0,1,0,0-17.07Z" transform="translate(0)"/><path class="cls-1" d="M510,165.21h0a8.53,8.53,0,0,0-6.57-3.08h-224l-4.35-29.35a25.76,25.76,0,0,0-25.33-21.85H213.34V128h36.47a8.53,8.53,0,0,1,8.45,7.29l29.82,201.26A25.76,25.76,0,0,0,313.4,358.4h21a25.45,25.45,0,0,0,48.06,0h37.27a25.6,25.6,0,1,0,0-17.07H382.43a25.45,25.45,0,0,0-48.06,0h-21a8.59,8.59,0,0,1-8.45-7.29l-2.71-18.31H477.87a8.53,8.53,0,0,0,8.38-7l25.6-136.53A8.54,8.54,0,0,0,510,165.21Zm-66.3,176.12a8.53,8.53,0,1,1-8.53,8.53A8.53,8.53,0,0,1,443.74,341.33Zm-85.33,0a8.53,8.53,0,1,1-8.53,8.53A8.53,8.53,0,0,1,358.4,341.33Zm112.38-42.67H299.71L282,179.2H493.23Z" transform="translate(0)"/><path class="cls-1" d="M221.87,256A110.93,110.93,0,1,0,110.94,366.93,110.93,110.93,0,0,0,221.87,256Zm-204.8,0a93.87,93.87,0,1,1,93.87,93.87A93.87,93.87,0,0,1,17.07,256Z" transform="translate(0)"/><path class="cls-1" d="M119.47,324.27v-9.75a34.07,34.07,0,0,0-8.53-67.05A17.07,17.07,0,1,1,128,230.4a8.53,8.53,0,0,0,17.07,0,34.13,34.13,0,0,0-25.6-32.92v-9.75a8.53,8.53,0,1,0-17.07,0v9.75a34.07,34.07,0,0,0,8.53,67.05A17.07,17.07,0,1,1,93.87,281.6a8.53,8.53,0,1,0-17.07,0,34.13,34.13,0,0,0,25.6,32.92v9.75a8.53,8.53,0,1,0,17.07,0Z" transform="translate(0)"/><path class="cls-1" d="M307.2,204.8H426.67a8.53,8.53,0,0,0,0-17.07H307.2a8.53,8.53,0,1,0,0,17.07Z" transform="translate(0)"/><path class="cls-1" d="M452.27,204.8h17.07a8.53,8.53,0,0,0,0-17.07H452.27a8.53,8.53,0,1,0,0,17.07Z" transform="translate(0)"/></svg>