<svg id="Capa_1" data-name="Capa 1" xmlns="http://www.w3.org/2000/svg" viewBox="0 0 458.32 512"><defs><style>.cls-1{fill:#1e90ff;}</style></defs><title>pizza-with-separate-slice</title><path class="cls-1" d="M98.14,100.79,229.79,231.45a6.65,6.65,0,0,0,11.34-4.72V6.65A6.65,6.65,0,0,0,234.47,0a225.34,225.34,0,0,0-161,66.76,6.65,6.65,0,0,0,0,9.39ZM111,94.84C144.15,64.64,184.3,48.17,227.82,47V96.61a41.72,41.72,0,0,0,0,83v31.15Zm116.79,71.31a28.37,28.37,0,0,1,0-56.09Zm0-152.74V33.66c-46.51,1.26-90.91,19.49-126.22,51.78L87.68,71.51A211.91,211.91,0,0,1,227.82,13.41Z" transform="translate(-26.84)"/><path class="cls-1" d="M418.09,120.85l0-.05-.05,0A227.66,227.66,0,0,0,256,53.68a6.65,6.65,0,0,0-6.65,6.65V266.78l-146-146a6.75,6.75,0,0,0-4.74-1.95,6.65,6.65,0,0,0-4.72,2l-.49.5a229.14,229.14,0,0,0,.51,323.49l0,0,0,0a229.14,229.14,0,0,0,323.83.17l.21-.2.2-.21a229.13,229.13,0,0,0-.16-323.82Zm34.69,155.33A195.42,195.42,0,0,0,399.85,148.4l13.4-13.4a214.15,214.15,0,0,1,58.49,141.19h-19Zm-354,154.5A214.15,214.15,0,0,1,40.26,289.49h19a195.4,195.4,0,0,0,52.93,127.79Zm141.19-154.5H72.53a182.16,182.16,0,0,1,49-118.38Zm22.72-96.57a28.34,28.34,0,0,1,0,54.69Zm0,68.36a41.69,41.69,0,0,0,0-82V99.37A182.16,182.16,0,0,1,381,148.4L262.65,266.78V248ZM72.53,289.49H239.94L204.6,324.83a48.06,48.06,0,0,0-67.51,67.51l-15.53,15.53A182.16,182.16,0,0,1,72.53,289.49Zm137.06,73A34.76,34.76,0,0,1,156.28,392L204.23,344A34.57,34.57,0,0,1,209.59,362.54Zm-69.58,0a34.76,34.76,0,0,1,55.1-28.22l-48.53,48.53A34.58,34.58,0,0,1,140,362.54Zm6.7,39a48.06,48.06,0,0,0,67.1-67.1l35.55-35.55V466.3a182.2,182.2,0,0,1-118.38-49ZM262.65,298.9,381,417.28a182.19,182.19,0,0,1-118.38,49V298.9Zm9.41-9.41H330a48.1,48.1,0,0,0,95.09,0h14.36a182.2,182.2,0,0,1-49,118.37Zm139.5,0a34.79,34.79,0,0,1-68,0Zm-68.27-13.31a34.78,34.78,0,0,1,68.52,0Zm82,0a48.08,48.08,0,0,0-95.42,0H272.06L390.44,157.81a182.21,182.21,0,0,1,49,118.38Zm-21.42-150.6L390.45,139A195.38,195.38,0,0,0,262.65,86.05v-19A214.2,214.2,0,0,1,403.84,125.59ZM98.74,135l13.41,13.41A195.38,195.38,0,0,0,59.21,276.18h-19A214.25,214.25,0,0,1,98.74,135Zm9.42,305.11,13.4-13.4a195.42,195.42,0,0,0,127.79,52.92v19A214.17,214.17,0,0,1,108.16,440.09Zm154.5,58.5v-19a195.42,195.42,0,0,0,127.79-52.92l13.41,13.41A214.22,214.22,0,0,1,262.65,498.59Zm150.61-67.9-13.41-13.41a195.42,195.42,0,0,0,52.92-127.79h19A214.16,214.16,0,0,1,413.26,430.69Z" transform="translate(-26.84)"/><path class="cls-1" d="M134.63,265.26a29,29,0,1,0-29-29A29,29,0,0,0,134.63,265.26Zm0-44.63A15.66,15.66,0,1,1,119,236.29,15.68,15.68,0,0,1,134.63,220.63Z" transform="translate(-26.84)"/><path class="cls-1" d="M305.5,365.45a29,29,0,1,0,29,29A29,29,0,0,0,305.5,365.45Zm0,44.63a15.66,15.66,0,1,1,15.66-15.66A15.68,15.68,0,0,1,305.5,410.08Z" transform="translate(-26.84)"/><path class="cls-1" d="M329.73,123.16a29,29,0,1,0,29,29A29,29,0,0,0,329.73,123.16Zm0,44.63a15.66,15.66,0,1,1,15.66-15.66A15.68,15.68,0,0,1,329.73,167.79Z" transform="translate(-26.84)"/></svg>