<svg id="Capa_1" data-name="Capa 1" xmlns="http://www.w3.org/2000/svg" viewBox="0 0 443.73 512"><defs><style>.cls-1{fill:#919191;}</style></defs><title>scale</title><path class="cls-1" d="M469.31,502.72,449.94,280.17C441.11,178.82,357.74,102.39,256,102.4h0c-101.73,0-185.1,76.42-193.91,177.77L42.7,502.72A8.53,8.53,0,0,0,51.2,512H460.8a8.53,8.53,0,0,0,8.51-9.28Zm-408.8-7.79L79.07,281.66c8-92.48,84.11-162.2,176.93-162.19h0c92.82,0,168.88,69.73,176.91,162.19l18.56,213.27h-391Z" transform="translate(-34.13)"/><path class="cls-1" d="M469.33,0H42.67a8.54,8.54,0,0,0-8.53,8.53A59.8,59.8,0,0,0,93.87,68.27H418.13A59.8,59.8,0,0,0,477.87,8.53,8.53,8.53,0,0,0,469.33,0Zm-51.2,51.2H93.87A42.73,42.73,0,0,1,52.06,17.07H459.94A42.73,42.73,0,0,1,418.13,51.2Z" transform="translate(-34.13)"/><rect class="cls-1" x="196.27" y="59.73" width="17.07" height="51.2"/><rect class="cls-1" x="230.4" y="59.73" width="17.07" height="51.2"/><path class="cls-1" d="M256,153.6c-84.69,0-153.6,68.91-153.6,153.6S171.31,460.8,256,460.8s153.6-68.91,153.6-153.6S340.69,153.6,256,153.6Zm0,290.13c-75.28,0-136.53-61.25-136.53-136.53S180.72,170.67,256,170.67,392.53,231.92,392.53,307.2,331.28,443.73,256,443.73Z" transform="translate(-34.13)"/><rect class="cls-1" x="213.33" y="162.13" width="17.07" height="34.13"/><rect class="cls-1" x="213.33" y="418.13" width="17.07" height="34.13"/><rect class="cls-1" x="76.8" y="298.67" width="34.13" height="17.07"/><rect class="cls-1" x="332.8" y="298.67" width="34.13" height="17.07"/><rect class="cls-1" x="156.96" y="199.61" width="17.07" height="34.13" transform="translate(-138.88 180.49) rotate(-45)"/><rect class="cls-1" x="337.97" y="380.61" width="17.07" height="34.13" transform="translate(-213.85 361.49) rotate(-45)"/><rect class="cls-1" x="148.46" y="389.17" width="34.13" height="17.07" transform="translate(-266.87 233.53) rotate(-45)"/><rect class="cls-1" x="329.45" y="208.18" width="34.13" height="17.07" transform="translate(-85.88 308.5) rotate(-45)"/><circle class="cls-1" cx="221.87" cy="307.2" r="17.07"/><rect class="cls-1" x="213.33" y="213.33" width="17.07" height="85.33"/></svg>