<svg id="Capa_1" data-name="Capa 1" xmlns="http://www.w3.org/2000/svg" viewBox="0 0 511.99 512"><defs><style>.cls-1{fill:gray;}</style></defs><title>search</title><g id="_4" data-name="4"><path class="cls-1" d="M507.15,484.14,375,354.07c34.62-37.61,55.89-87.35,55.89-142.08C430.83,94.9,334.39,0,215.42,0S0,94.9,0,212,96.44,424,215.42,424A216.64,216.64,0,0,0,351,376.63L483.7,507.22a16.75,16.75,0,0,0,23.43,0A16.14,16.14,0,0,0,507.15,484.14ZM215.42,391.36C114.75,391.36,33.15,311,33.15,212S114.75,32.62,215.42,32.62,397.68,112.92,397.68,212,316.08,391.36,215.42,391.36Z" transform="translate(-0.01)"/></g></svg>