<svg id="Layer_1" data-name="Layer 1" xmlns="http://www.w3.org/2000/svg" viewBox="0 0 512 323.87"><title>shipped</title><path d="M476.16,231.36l-13.26-53a8,8,0,0,0,6.35-7.84v-8.55a33.71,33.71,0,0,0-33.67-33.67H375.18V110.63a16.59,16.59,0,0,0-16.57-16.57H50.77A16.59,16.59,0,0,0,34.2,110.63V256a8,8,0,0,0,16,0V110.63a.53.53,0,0,1,.53-.53H358.61a.53.53,0,0,1,.53.53V256a8,8,0,1,0,16,0v-9.09h94.61a26.23,26.23,0,0,1,24.91,18.17H469.78a8,8,0,0,0-8,8v17.1a25.15,25.15,0,0,0,25.12,25.12H496V350.6H475a50.76,50.76,0,0,0-96,0h-3.86V290.2a8,8,0,1,0-16,0v60.39H192.82a50.76,50.76,0,0,0-96,0H50.77a.53.53,0,0,1-.53-.53V332.42H85a8,8,0,0,0,0-16H8a8,8,0,1,0,0,16H34.21v17.64a16.59,16.59,0,0,0,16.57,16.57h43.3c0,.18,0,.36,0,.53a50.77,50.77,0,0,0,101.54,0c0-.18,0-.36,0-.53H376.26c0,.18,0,.36,0,.53a50.77,50.77,0,0,0,101.54,0c0-.18,0-.36,0-.53H504a8,8,0,0,0,8-8V273.1A42.29,42.29,0,0,0,476.16,231.36Zm-101-87.06h60.39a17.66,17.66,0,0,1,17.64,17.64v.53h-78Zm0,86.58V178.51h71.23l13.09,52.38H375.18Zm-230.35,171a34.74,34.74,0,1,1,34.74-34.74A34.78,34.78,0,0,1,144.84,401.9Zm282.19,0a34.74,34.74,0,1,1,34.74-34.74A34.78,34.78,0,0,1,427,401.9ZM496,299.29h-9.09a9.1,9.1,0,0,1-9.09-9.09v-9.09H496v18.17Z" transform="translate(0 -94.06)"/><path d="M144.84,350.6a16.57,16.57,0,1,0,16.57,16.57A16.59,16.59,0,0,0,144.84,350.6Z" transform="translate(0 -94.06)"/><path d="M427,350.6a16.57,16.57,0,1,0,16.57,16.57A16.59,16.59,0,0,0,427,350.6Z" transform="translate(0 -94.06)"/><path d="M333,316.39H213.24a8,8,0,1,0,0,16H333a8,8,0,0,0,0-16Z" transform="translate(0 -94.06)"/><path d="M127.73,282.19H25.12a8,8,0,1,0,0,16H127.73a8,8,0,0,0,0-16Z" transform="translate(0 -94.06)"/><path d="M278.77,173.37a8,8,0,0,0-11.34,0l-71.29,71.29-37.09-37.09a8,8,0,0,0-11.34,11.34l42.76,42.76a8,8,0,0,0,11.34,0l77-77A8,8,0,0,0,278.77,173.37Z" transform="translate(0 -94.06)"/></svg>