<svg id="Capa_1" data-name="Capa 1" xmlns="http://www.w3.org/2000/svg" viewBox="0 0 512 413.04"><defs><style>.cls-1{fill:#1e90ff;}</style></defs><title>the-tube-entrance</title><path class="cls-1" d="M57.71,278.11A7.75,7.75,0,0,1,50,270.36V232.08H7.75a7.75,7.75,0,1,1,0-15.5h50a7.75,7.75,0,0,1,7.75,7.75v46A7.75,7.75,0,0,1,57.71,278.11Z" transform="translate(0 -49.48)"/><path class="cls-1" d="M504.25,462.52H257.54a7.75,7.75,0,0,1-7.75-7.75V416.49H207.58a7.75,7.75,0,0,1-7.75-7.75V370.2l-42.16,0a6.59,6.59,0,0,1-1.83-.21h0a7.76,7.76,0,0,1-5.82-6.28h0v0h0v0h0v0h0v0h0v0h0v0h0a.06.06,0,0,0,0,0h0a0,0,0,0,0,0,0h0v0h0a0,0,0,0,0,0,0h0v0h0a0,0,0,0,0,0,0h0v0h0v0h0v0h0v0h0v0h0v0h0v0h0v0h0v0h0v0h0v0h0v0h0v0h0v0h0v0h0v0h0v0h0v0h0v0h0v0h0v0h0v0h0v0h0v0h0v0h0v0h0v0h0v0h0V324.22H107.67a7.75,7.75,0,0,1-7.75-7.75v-38.4l-42.2,0h0a7.75,7.75,0,0,1,0-15.5l50-.05h0a7.75,7.75,0,0,1,7.75,7.75v38.41h42.21a7.75,7.75,0,0,1,7.75,7.75v38.27l42.2,0h0a7.75,7.75,0,0,1,7.75,7.75V401h42.21a7.75,7.75,0,0,1,7.75,7.75V447h34.81V195H7.75a7.75,7.75,0,0,1,0-15.5H361.91V163.18h-17.6a26.73,26.73,0,0,1-26.7-26.7V76.18a26.73,26.73,0,0,1,26.7-26.7H467.8a26.73,26.73,0,0,1,26.7,26.7v60.29a26.73,26.73,0,0,1-26.7,26.7H450.2v16.36h54.05a7.75,7.75,0,0,1,7.75,7.75V454.77A7.75,7.75,0,0,1,504.25,462.52ZM473.67,447H496.5V195H315.61V447h22.82V262.66a7.75,7.75,0,0,1,7.75-7.75H465.92a7.75,7.75,0,0,1,7.75,7.75V447Zm-59.86,0h44.36V270.41H413.81Zm-59.86,0H398.3V270.41H353.94V447Zm23.47-267.47H434.7V163.18H377.42Zm65-31.87H467.8a11.21,11.21,0,0,0,11.2-11.2V76.18A11.21,11.21,0,0,0,467.8,65H344.31a11.21,11.21,0,0,0-11.2,11.2v60.29a11.21,11.21,0,0,0,11.2,11.2ZM405.69,134.3a7.71,7.71,0,0,1-2.75-.51l-.43-.18h0a7.74,7.74,0,0,1-2.2-1.5h0a7.69,7.69,0,0,1-1.6-2.25v0l-.1-.22-10.11-23.27L379,129.48a7.75,7.75,0,0,1-14.36-5.85l16.39-40.19a7.75,7.75,0,0,1,7.09-4.82h.09a7.75,7.75,0,0,1,7.11,4.67l10.11,23.3,9.44-23.13a7.75,7.75,0,0,1,14.29-.16l17.45,40.19a7.75,7.75,0,1,1-14.22,6.17l-10.11-23.3-9.43,23.12-.07.17h0a7.73,7.73,0,0,1-1.54,2.3h0a7.78,7.78,0,0,1-5.5,2.35Z" transform="translate(0 -49.48)"/></svg>