<svg id="Capa_1" data-name="Capa 1" xmlns="http://www.w3.org/2000/svg" viewBox="0 0 444.16 512"><defs><style>.cls-1{fill:#1e90ff;}</style></defs><title>wallet</title><path class="cls-1" d="M461.44,88.18,305.14,3.54c-14.83-8-35.22-1.85-43.25,13l-91.44,169.9H59.25a25.05,25.05,0,0,0-25.33,25.33V486.67A25.05,25.05,0,0,0,59.25,512H414.49a25.05,25.05,0,0,0,25.33-25.33V422.42h10.5a9.76,9.76,0,0,0,9.88-9.88V339a9.76,9.76,0,0,0-9.88-9.88h-10.5V256.84a25.78,25.78,0,0,0-19.77-24.71l54.37-100.7A32.39,32.39,0,0,0,461.44,88.18ZM350.24,50.5l-97.61,181h-27.8L329.23,39.37ZM279.81,25.78c3.09-5.56,10.5-8,16.06-4.94l15.45,8.65-108.73,202h-34ZM53.07,211.13c0-1.85,2.47-4.94,5.56-4.94h100.7L145.74,230.9H58.63a17.1,17.1,0,0,0-5.56.62V211.13ZM419.43,486.67a5.54,5.54,0,0,1-5.56,5.56H58.63a5.54,5.54,0,0,1-5.56-5.56V256.84a5.54,5.54,0,0,1,5.56-5.56H413.26a5.54,5.54,0,0,1,5.56,5.56v72.28H381.13a29.66,29.66,0,0,0-29.65,29.65v34a29.66,29.66,0,0,0,29.65,29.65h38.3v64.25ZM439.2,348.9h.62v53.75H381.13a9.76,9.76,0,0,1-9.88-9.88v-34a9.76,9.76,0,0,1,9.88-9.88Zm17.3-227.35-59.31,110H274.87L367.54,60.38l84,45.72C457.74,108.57,459.59,116,456.5,121.54Z" transform="translate(-33.92 0)"/><path class="cls-1" d="M418.82,112.28l-4.94-2.47c-12.36-6.8-29-1.85-35.83,10.5L371.86,132c-3.09,6.18-4.32,13.59-1.85,20.39a24.88,24.88,0,0,0,13,15.45l4.94,2.47a28.12,28.12,0,0,0,12.36,3.09,27.79,27.79,0,0,0,23.48-13.59l6.18-11.74C436.11,135.14,431.17,119.07,418.82,112.28ZM412,138.84l-6.18,11.74a7,7,0,0,1-9.27,2.47L391.63,150a9.08,9.08,0,0,1-3.09-3.71c-.62-1.85-.62-3.71.62-4.94l6.18-11.74c1.24-1.85,3.71-3.71,6.18-3.71a5.57,5.57,0,0,1,3.09.62l4.94,2.47A9.61,9.61,0,0,1,412,138.84Z" transform="translate(-33.92 0)"/></svg>